#!OML:ASF G:\JayActor3\Patient Classification 1\Patient 1\Session 2\male.ASF
:FULLY-SPECIFIED
:DEGREES
3149
root -6.03257 16.7476 -4.82564 2872.16 85.1078 -4.91216
lowerback 4.4551 -4.06398 -2.22101
upperback -0.349694 -5.42208 3.41078
thorax -2.31386 -2.65127 5.09378
lowerneck -0.298647 -12.8887 -9.2976
upperneck -3.63043 -17.0758 9.32023
head 0.618436 -8.50963 4.28716
rclavicle 1.56419e-014 -1.11319e-014
rhumerus -37.2777 -8.49036 -73.0176
rradius 14.1646
rwrist 15.8137
rhand -19.9108 1.12499
rfingers 7.12502
rthumb 6.42594 -28.7575
lclavicle 1.56419e-014 -1.11319e-014
lhumerus -37.2266 31.7435 72.4898
lradius 11.6905
lwrist -15.6448
lhand -22.5308 20.3385
lfingers 7.12502
lthumb 3.8962 50.2826
rfemur -14.835 7.73718 26.2905
rtibia 37.1157
rfoot -18.8074 -4.41874
rtoes 18.9841
lfemur -10.3685 15.8182 -11.2699
ltibia 75.5508
lfoot 14.2065 -1.02643
ltoes -14.0274
3150
root -5.84227 16.7909 -4.80289 2869.95 85.1772 -7.21627
lowerback 4.30472 -3.98368 -2.08114
upperback -0.371749 -5.31196 3.26385
thorax -2.29029 -2.59942 4.84643
lowerneck -0.0821879 -13.2522 -9.6475
upperneck -3.42544 -17.5954 9.70071
head 0.77432 -8.77462 4.44506
rclavicle 5.56597e-014 -2.78299e-014
rhumerus -36.2388 -7.90034 -74.7851
rradius 14.3755
rwrist 15.5962
rhand -20.0622 1.15264
rfingers 7.12502
rthumb 6.27981 -28.7343
lclavicle 5.56597e-014 -2.78299e-014
lhumerus -39.6082 33.8308 69.9195
lradius 11.0205
lwrist -17.4078
lhand -23.2194 20.5738
lfingers 7.12502
lthumb 3.23121 50.5291
rfemur -13.6505 7.58431 26.57
rtibia 36.1532
rfoot -18.8749 -4.19328
rtoes 19.1606
lfemur -12.4421 15.7024 -11.5253
ltibia 76.4228
lfoot 12.8187 -1.24868
ltoes -14.8182
3151
root -5.65297 16.835 -4.78307 2866.93 85.2041 -10.3371
lowerback 4.158 -3.89341 -1.84705
upperback -0.384602 -5.1831 3.12819
thorax -2.26709 -2.53909 4.55785
lowerneck 0.0566776 -13.6237 -9.93897
upperneck -3.21558 -18.1092 10.4061
head 0.882027 -9.03232 4.20705
rclavicle -1.46604e-015 1.59028e-014
rhumerus -35.2451 -6.80073 -76.7558
rradius 14.8054
rwrist 14.8307
rhand -20.127 1.1451
rfingers 7.12502
rthumb 6.21722 -28.7437
lclavicle -1.46604e-015 1.59028e-014
lhumerus -41.8538 35.1129 67.7423
lradius 10.5384
lwrist -18.4852
lhand -23.6355 20.7896
lfingers 7.12502
lthumb 2.82941 50.7506
rfemur -12.4268 7.34806 26.901
rtibia 35.1123
rfoot -18.8352 -3.87292
rtoes 19.4497
lfemur -14.4215 15.5686 -11.7709
ltibia 77.0174
lfoot 11.4455 -1.29904
ltoes -15.4536
3152
root -5.46512 16.8789 -4.76552 2863.28 85.1893 -14.0828
lowerback 4.01572 -3.79908 -1.54286
upperback -0.390751 -5.04519 3.0042
thorax -2.24347 -2.47486 4.24258
lowerneck 0.244658 -13.9872 -10.2641
upperneck -2.98243 -18.6339 10.768
head 1.03818 -9.29751 4.31589
rclavicle -1.02921e-013 2.54444e-014
rhumerus -34.3084 -5.27822 -78.837
rradius 15.4348
rwrist 13.6512
rhand -20.1051 1.13508
rfingers 7.12502
rthumb 6.23836 -28.7531
lclavicle -1.02921e-013 2.54444e-014
lhumerus -43.8169 35.6129 66.1266
lradius 10.2165
lwrist -18.8602
lhand -23.728 20.953
lfingers 7.12502
lthumb 2.74008 50.9151
rfemur -11.1944 7.01411 27.2683
rtibia 34.0264
rfoot -18.685 -3.47405
rtoes 19.7484
lfemur -16.3195 15.4071 -12.0128
ltibia 77.3466
lfoot 10.1329 -1.21784
ltoes -15.9457
3153
root -5.27851 16.9218 -4.7497 2859.46 85.1187 -17.9989
lowerback 3.87966 -3.6994 -1.20504
upperback -0.391858 -4.89903 2.88647
thorax -2.21895 -2.40681 3.9156
lowerneck 0.426389 -14.3407 -10.5731
upperneck -2.76335 -19.1465 11.1168
head 1.1906 -9.55646 4.41717
rclavicle -6.58226e-014 -7.95139e-016
rhumerus -33.4477 -3.37038 -80.976
rradius 16.2682
rwrist 12.1606
rhand -20.0042 1.08124
rfingers 7.12502
rthumb 6.33573 -28.804
lclavicle -6.58226e-014 -7.95139e-016
lhumerus -45.4372 35.4287 65.1327
lradius 10.0366
lwrist -18.6007
lhand -23.4539 21.0158
lfingers 7.12502
lthumb 3.00476 50.9743
rfemur -9.9807 6.58275 27.641
rtibia 32.9363
rfoot -18.4337 -2.98847
rtoes 20.0975
lfemur -18.129 15.2275 -12.2682
ltibia 77.414
lfoot 8.90176 -1.03594
ltoes -16.2382
3154
root -5.09286 16.9632 -4.73565 2856.09 84.9756 -21.4849
lowerback 3.74223 -3.58801 -0.866172
upperback -0.389183 -4.73829 2.76603
thorax -2.18873 -2.33159 3.58494
lowerneck 0.606965 -14.6805 -10.8637
upperneck -2.5735 -19.6413 11.4594
head 1.33355 -9.8065 4.51423
rclavicle -4.27511e-014 3.10104e-014
rhumerus -32.6473 -1.25551 -83.0616
rradius 17.2499
rwrist 10.5881
rhand -19.821 1.01326
rfingers 7.12502
rthumb 6.51262 -28.8666
lclavicle -4.27511e-014 3.10104e-014
lhumerus -46.5621 34.4711 65.0161
lradius 9.98526
lwrist -17.4944
lhand -22.8257 21.0444
lfingers 7.12502
lthumb 3.61142 50.9935
rfemur -8.82324 6.05736 27.9762
rtibia 31.8868
rfoot -18.0751 -2.42935
rtoes 20.2855
lfemur -19.8475 15.0548 -12.5664
ltibia 77.2224
lfoot 7.75578 -0.768459
ltoes -16.297
3155
root -4.90734 17.0025 -4.72257 2853.4 84.7957 -24.2665
lowerback 3.61084 -3.47169 -0.563126
upperback -0.377811 -4.57413 2.63567
thorax -2.14859 -2.25454 3.26453
lowerneck 0.795977 -15.0047 -11.1344
upperneck -2.42276 -20.1152 11.7982
head 1.46209 -10.0466 4.60943
rclavicle 2.03506e-014 -4.77083e-015
rhumerus -31.9069 1.04043 -85.0744
rradius 18.3653
rwrist 8.93194
rhand -19.6191 0.941387
rfingers 7.12502
rthumb 6.7075 -28.9324
lclavicle 2.03506e-014 -4.77083e-015
lhumerus -47.7237 33.5082 64.8691
lradius 10.0637
lwrist -16.5697
lhand -21.7868 20.8519
lfingers 7.12502
lthumb 4.61459 50.7816
rfemur -7.72186 5.43857 28.2475
rtibia 30.9168
rfoot -17.6575 -1.82562
rtoes 20.2061
lfemur -21.4481 14.8726 -12.9188
ltibia 76.7698
lfoot 6.66044 -0.452833
ltoes -16.2331
